<svg xmlns="http://www.w3.org/2000/svg" viewBox="0 0 550.09 140.94"><defs><style>.cls-1,.cls-2{fill:#4c297b;}.cls-1{stroke:#3c2168;stroke-miterlimit:10;stroke-width:0.25px;}</style></defs><g id="Layer_3" data-name="Layer 3"><path class="cls-1" d="M360.83,269.53h9.11a109.38,109.38,0,0,0,51.8,92.66.63.63,0,0,1,.19.88l-3.49,5.21a.63.63,0,0,1-.82.21,108.73,108.73,0,0,0-104.15-.4A.37.37,0,0,1,313,368l-4-5.12a.35.35,0,0,1,.08-.52c10.27-6.75,34.43-24.77,45.8-57.41A108.6,108.6,0,0,0,360.83,269.53Z" transform="translate(-308.72 -269.4)"/><circle class="cls-1" cx="10.68" cy="37.05" r="10.56"/><circle class="cls-1" cx="56.78" cy="117.85" r="10.56"/><circle class="cls-1" cx="103.26" cy="37.05" r="10.56"/><path class="cls-2" d="M462.3,405.88V407h-9.09v-11.9H462v1.08h-7.45v4.24h6.65v1.07h-6.65v4.42Z" transform="translate(-308.72 -269.4)"/><path class="cls-2" d="M481.15,401.78V407h-1.31V401.9a2.54,2.54,0,0,0-2.77-2.86,3,3,0,0,0-3.23,3.23V407h-1.3V401.9a2.55,2.55,0,0,0-2.79-2.86,3,3,0,0,0-3.23,3.23V407h-1.31v-9h1.25v1.64A4,4,0,0,1,470,398a3.51,3.51,0,0,1,3.44,1.88,4.28,4.28,0,0,1,3.81-1.88C479.6,398,481.15,399.21,481.15,401.78Z" transform="translate(-308.72 -269.4)"/><path class="cls-2" d="M494.46,402.49a4.51,4.51,0,0,1-4.81,4.56,4.32,4.32,0,0,1-3.67-1.77v5h-1.3V398h1.25v1.77a4.29,4.29,0,0,1,3.72-1.83A4.49,4.49,0,0,1,494.46,402.49Zm-1.3,0a3.6,3.6,0,1,0-3.6,3.49A3.42,3.42,0,0,0,493.16,402.49Z" transform="translate(-308.72 -269.4)"/><path class="cls-2" d="M496.15,402.49c0-2.65,2.09-4.53,4.92-4.53a4.56,4.56,0,1,1-4.92,4.53Zm8.5,0a3.59,3.59,0,1,0-3.58,3.49A3.39,3.39,0,0,0,504.65,402.49Z" transform="translate(-308.72 -269.4)"/><path class="cls-2" d="M522.52,398l-3.65,9h-1.23l-3-7.33L511.54,407h-1.23l-3.63-9h1.25l3,7.6,3.1-7.6h1.12l3.08,7.6,3.07-7.6Z" transform="translate(-308.72 -269.4)"/><path class="cls-2" d="M532.61,402.87h-8.08c.15,1.87,1.69,3.11,3.8,3.11a4,4,0,0,0,3-1.17l.73.78a4.93,4.93,0,0,1-3.72,1.46c-3,0-5.07-1.9-5.07-4.56A4.47,4.47,0,0,1,528,398a4.43,4.43,0,0,1,4.68,4.53C532.63,402.6,532.61,402.73,532.61,402.87Zm-8.08-.9h6.85a3.46,3.46,0,0,0-6.85,0Z" transform="translate(-308.72 -269.4)"/><path class="cls-2" d="M540.15,398v1.17l-.31,0a3,3,0,0,0-3.25,3.3V407h-1.3v-9h1.24v1.75C537.14,398.58,538.37,398,540.15,398Z" transform="translate(-308.72 -269.4)"/><path class="cls-2" d="M542.2,395.2a.91.91,0,0,1,1-.85.86.86,0,1,1,0,1.72A.91.91,0,0,1,542.2,395.2Zm.3,2.82h1.3v9h-1.3Z" transform="translate(-308.72 -269.4)"/><path class="cls-2" d="M556.32,401.78V407H555V401.9a2.59,2.59,0,0,0-2.9-2.86,3,3,0,0,0-3.37,3.23V407h-1.31v-9h1.25v1.65a4.15,4.15,0,0,1,3.67-1.71C554.7,398,556.32,399.21,556.32,401.78Z" transform="translate(-308.72 -269.4)"/><path class="cls-2" d="M568.83,398v7.86c0,3.07-1.63,4.47-4.83,4.47a7.06,7.06,0,0,1-4.5-1.38l.67-.92a6,6,0,0,0,3.8,1.23c2.44,0,3.56-1,3.56-3.25v-1.14a4.48,4.48,0,0,1-3.77,1.74c-2.75,0-4.84-1.79-4.84-4.36S561,398,563.76,398a4.48,4.48,0,0,1,3.82,1.78V398Zm-1.27,4.25c0-1.93-1.54-3.26-3.67-3.26s-3.65,1.33-3.65,3.26a3.33,3.33,0,0,0,3.65,3.28C566,405.55,567.56,404.21,567.56,402.27Z" transform="translate(-308.72 -269.4)"/><path class="cls-2" d="M582.37,406.42a3.24,3.24,0,0,1-2,.63c-1.82,0-2.83-.95-2.83-2.6V399h-1.72v-1h1.72v-1.95h1.31V398h2.94v1h-2.94v5.34a1.48,1.48,0,0,0,1.67,1.63,2.25,2.25,0,0,0,1.43-.46Z" transform="translate(-308.72 -269.4)"/><path class="cls-2" d="M593.62,401.78V407h-1.3V401.9a2.6,2.6,0,0,0-2.9-2.86,3,3,0,0,0-3.38,3.23V407h-1.31V394.35H586v5.24a4.17,4.17,0,0,1,3.61-1.63C592,398,593.62,399.21,593.62,401.78Z" transform="translate(-308.72 -269.4)"/><path class="cls-2" d="M605.6,402.87h-8.08c.15,1.87,1.69,3.11,3.8,3.11a4,4,0,0,0,3-1.17l.73.78a4.93,4.93,0,0,1-3.72,1.46c-3,0-5.07-1.9-5.07-4.56a4.47,4.47,0,0,1,4.72-4.53,4.43,4.43,0,0,1,4.68,4.53C605.62,402.6,605.6,402.73,605.6,402.87Zm-8.08-.9h6.85a3.46,3.46,0,0,0-6.85,0Z" transform="translate(-308.72 -269.4)"/><path class="cls-2" d="M614.72,396.15v4.68h6.64v1.09h-6.64V407h-1.36v-11.9h8.81v1.08Z" transform="translate(-308.72 -269.4)"/><path class="cls-2" d="M633.07,398v9h-1.25v-1.64a3.93,3.93,0,0,1-3.47,1.72c-2.46,0-4.07-1.27-4.07-3.84V398h1.3v5.07a2.59,2.59,0,0,0,2.9,2.87,3,3,0,0,0,3.28-3.24V398Z" transform="translate(-308.72 -269.4)"/><path class="cls-2" d="M641.8,406.42a3.22,3.22,0,0,1-2,.63c-1.81,0-2.82-.95-2.82-2.6V399h-1.73v-1h1.73v-1.95h1.3V398h2.94v1h-2.94v5.34a1.48,1.48,0,0,0,1.67,1.63,2.25,2.25,0,0,0,1.43-.46Z" transform="translate(-308.72 -269.4)"/><path class="cls-2" d="M652.87,398v9h-1.25v-1.64a3.93,3.93,0,0,1-3.47,1.72c-2.46,0-4.08-1.27-4.08-3.84V398h1.31v5.07a2.59,2.59,0,0,0,2.9,2.87,3,3,0,0,0,3.28-3.24V398Z" transform="translate(-308.72 -269.4)"/><path class="cls-2" d="M661.38,398v1.17l-.31,0a3,3,0,0,0-3.25,3.3V407h-1.31v-9h1.25v1.75C658.37,398.58,659.6,398,661.38,398Z" transform="translate(-308.72 -269.4)"/><path class="cls-2" d="M672,402.87H664c.15,1.87,1.69,3.11,3.8,3.11a4,4,0,0,0,3-1.17l.73.78a4.93,4.93,0,0,1-3.72,1.46c-3,0-5.07-1.9-5.07-4.56a4.47,4.47,0,0,1,4.72-4.53,4.43,4.43,0,0,1,4.68,4.53C672.06,402.6,672,402.73,672,402.87ZM664,402h6.85a3.46,3.46,0,0,0-6.85,0Z" transform="translate(-308.72 -269.4)"/><path class="cls-2" d="M693.69,398,690,407h-1.23l-3-7.33-3,7.33h-1.23l-3.64-9h1.25l3,7.6,3.1-7.6h1.12l3.09,7.6,3.06-7.6Z" transform="translate(-308.72 -269.4)"/><path class="cls-2" d="M695.36,395.2a1,1,0,1,1,.95.87A.91.91,0,0,1,695.36,395.2Zm.29,2.82H697v9h-1.3Z" transform="translate(-308.72 -269.4)"/><path class="cls-2" d="M705.67,406.42a3.22,3.22,0,0,1-2,.63c-1.81,0-2.82-.95-2.82-2.6V399h-1.73v-1h1.73v-1.95h1.3V398h2.94v1h-2.94v5.34a1.48,1.48,0,0,0,1.67,1.63,2.23,2.23,0,0,0,1.43-.46Z" transform="translate(-308.72 -269.4)"/><path class="cls-2" d="M716.92,401.78V407h-1.3V401.9a2.6,2.6,0,0,0-2.9-2.86,3,3,0,0,0-3.38,3.23V407H708V394.35h1.3v5.24A4.19,4.19,0,0,1,713,398C715.31,398,716.92,399.21,716.92,401.78Z" transform="translate(-308.72 -269.4)"/><path class="cls-2" d="M733.6,403.79h-7.16L724.9,407h-1.42l5.88-11.9h1.34l5.87,11.9h-1.43Zm-.5-1L730,396.38l-3.08,6.39Z" transform="translate(-308.72 -269.4)"/><path class="cls-2" d="M738.7,395.07h1.36V407H738.7Z" transform="translate(-308.72 -269.4)"/><path class="cls-2" d="M510.73,370.05H501.1a5.82,5.82,0,0,1-5.31-4.4l-17.08-61.11-17.37,61.15a5.82,5.82,0,0,1-5.3,4.36H446.9l17.94-64.93a10.73,10.73,0,0,1,11.17-7.8h5.57a11.12,11.12,0,0,1,6.43,2.32,10.74,10.74,0,0,1,2.9,3.54Q500.82,336.62,510.73,370.05Z" transform="translate(-308.72 -269.4)"/><path class="cls-2" d="M816.06,371.84H805.72V331.78h30.62a9.29,9.29,0,0,0,6.57-2.66q2.58-2.55,2.58-7.25a9.93,9.93,0,0,0-2.58-7.3,9.2,9.2,0,0,0-6.57-2.71H810.25a4.1,4.1,0,0,1-3.21-1.51,5.46,5.46,0,0,1-1.32-3.71v-7.82h31.8a20.1,20.1,0,0,1,15.26,6.36q6,6.36,6,16.59,0,9.81-6,16.17a20.09,20.09,0,0,1-15.31,6.36H825c-3.4,0-6.16,3.09-6.16,6.9v17.51A3,3,0,0,1,816.06,371.84Z" transform="translate(-308.72 -269.4)"/><path class="cls-2" d="M816.06,371.84H805.72V331.78h30.62a9.29,9.29,0,0,0,6.57-2.66q2.58-2.55,2.58-7.25a9.93,9.93,0,0,0-2.58-7.3,9.2,9.2,0,0,0-6.57-2.71H810.25a4.1,4.1,0,0,1-3.21-1.51,5.46,5.46,0,0,1-1.32-3.71v-7.82h31.8a20.1,20.1,0,0,1,15.26,6.36q6,6.36,6,16.59,0,9.81-6,16.17a20.09,20.09,0,0,1-15.31,6.36H825c-3.4,0-6.16,3.09-6.16,6.9v17.51A3,3,0,0,1,816.06,371.84Z" transform="translate(-308.72 -269.4)"/><rect class="cls-2" x="497" y="29.41" width="30.83" height="13.04"/><path class="cls-2" d="M516.32,299.5H529.8v69H516.32Z" transform="translate(-308.72 -269.4)"/><path class="cls-2" d="M597.07,318.36v2.58H584v-1.47c0-5.52-3.39-9.2-12.41-9.2S559,313.67,559,318.64v.28c0,6.89,7.14,7.54,17,9.66,10.62,2.2,21.42,5.42,21.42,20.42v.83c0,11.13-8.66,19.68-26.24,19.68-18.48,0-26.42-7.91-26.42-19.87v-2.85h13v1.75c0,5.33,2.5,9.38,13.12,9.38,10.09,0,13-4.14,13-8.19V349c0-6.35-6.87-7.64-16.6-9.66-11.07-2.39-21.87-4.88-21.87-20.33v-.55c0-11.78,8.57-19.88,25.89-19.88C589.13,298.58,597.07,306.5,597.07,318.36Z" transform="translate(-308.72 -269.4)"/><path class="cls-2" d="M637,369.42c-18.48,0-27-9.84-27-24.75v-22c0-14.45,8.48-24.11,27-24.11s27.05,9.66,27.05,24.11v22C664.08,359.58,655.51,369.42,637,369.42Zm0-12.51c9.91,0,13.48-5.24,13.48-12.7V323.88c0-7.54-3.57-12.78-13.48-12.78s-13.48,5.24-13.48,12.78v20.33C623.55,351.67,627.12,356.91,637,356.91Z" transform="translate(-308.72 -269.4)"/><path class="cls-2" d="M693.5,311.19H674V298.5H726.8v12.69H707.16V369H693.5Z" transform="translate(-308.72 -269.4)"/><path class="cls-2" d="M763.72,369.42c-18.47,0-27-9.84-27-24.75v-22c0-14.45,8.48-24.11,27-24.11s27,9.66,27,24.11v22C790.77,359.58,782.2,369.42,763.72,369.42Zm0-12.51c9.91,0,13.48-5.24,13.48-12.7V323.88c0-7.54-3.57-12.78-13.48-12.78s-13.47,5.24-13.47,12.78v20.33C750.25,351.67,753.82,356.91,763.72,356.91Z" transform="translate(-308.72 -269.4)"/></g></svg>
